AdventPro-blk_wd.ufo
<glyph name="dollar" format="2">
  <advance width="819" height="962"/>
  <unicode hex="0024"/>
  <outline>
    <component base="S" xOffset="2.2848"/>
    <contour>
      <point x="317" y="-115" type="line"/>
      <point x="327" y="329.258" type="line"/>
      <point x="317" y="819" type="line"/>
      <point x="482" y="819" type="line"/>
      <point x="472" y="327.036" type="line"/>
      <point x="482" y="-115" type="line"/>
    </contour>
  </outline>
</glyph>
<glyph name="nine" format="2">
  <advance width="698" height="962"/>
  <unicode hex="0039"/>
  <outline>
    <contour>
      <point x="346" y="710" type="curve" smooth="yes"/>
      <point x="524" y="710"/>
      <point x="664" y="627"/>
      <point x="664" y="498" type="curve" smooth="yes"/>
      <point x="664" y="239" type="line" smooth="yes"/>
      <point x="664" y="93"/>
      <point x="517" y="-1"/>
      <point x="298" y="-1" type="curve" smooth="yes"/>
      <point x="245" y="-1" type="line"/>
      <point x="245" y="159" type="line"/>
      <point x="324" y="159" type="line" smooth="yes"/>
      <point x="399" y="159"/>
      <point x="484" y="185"/>
      <point x="484" y="254" type="curve" smooth="yes"/>
      <point x="484" y="294" type="line"/>
      <point x="484" y="296"/>
      <point x="423" y="275"/>
      <point x="329" y="275" type="curve" smooth="yes"/>
      <point x="145" y="275"/>
      <point x="26" y="355"/>
      <point x="26" y="498" type="curve" smooth="yes"/>
      <point x="26" y="628"/>
      <point x="166" y="710"/>
    </contour>
    <contour>
      <point x="346" y="545" type="curve" smooth="yes"/>
      <point x="268" y="545"/>
      <point x="205" y="529"/>
      <point x="205" y="492" type="curve" smooth="yes"/>
      <point x="205" y="455"/>
      <point x="268" y="436"/>
      <point x="346" y="436" type="curve" smooth="yes"/>
      <point x="424" y="436"/>
      <point x="484" y="455"/>
      <point x="484" y="492" type="curve" smooth="yes"/>
      <point x="484" y="529"/>
      <point x="424" y="545"/>
    </contour>
  </outline>
</glyph>
<glyph name="at" format="2">
  <advance width="1154" height="962"/>
  <unicode hex="0040"/>
  <outline>
    <contour>
      <point x="1131" y="359" type="line"/>
      <point x="1079" y="339"/>
      <point x="1074" y="301"/>
      <point x="1074" y="263" type="curve" smooth="yes"/>
      <point x="1074" y="159" type="line" smooth="yes"/>
      <point x="1074" y="-11"/>
      <point x="897" y="-147"/>
      <point x="558" y="-147" type="curve" smooth="yes"/>
      <point x="157" y="-147"/>
      <point x="31" y="5"/>
      <point x="31" y="202" type="curve" smooth="yes"/>
      <point x="31" y="361" type="line" smooth="yes"/>
      <point x="31" y="581"/>
      <point x="224" y="667"/>
      <point x="466" y="667" type="curve" smooth="yes"/>
      <point x="703" y="667"/>
      <point x="803" y="585"/>
      <point x="803" y="478" type="curve"/>
      <point x="885" y="479" type="line"/>
      <point x="853" y="327" type="line"/>
      <point x="803" y="327" type="line"/>
      <point x="803" y="105" type="line"/>
      <point x="805" y="105"/>
      <point x="716" y="42"/>
      <point x="558" y="42" type="curve" smooth="yes"/>
      <point x="349" y="42"/>
      <point x="302" y="119"/>
      <point x="302" y="211" type="curve" smooth="yes"/>
      <point x="302" y="316" type="line" smooth="yes"/>
      <point x="302" y="432"/>
      <point x="380" y="479"/>
      <point x="484" y="479" type="curve" smooth="yes"/>
      <point x="623" y="479" type="line"/>
      <point x="623" y="503"/>
      <point x="571" y="513"/>
      <point x="476" y="513" type="curve" smooth="yes"/>
      <point x="343" y="513"/>
      <point x="210" y="492"/>
      <point x="210" y="360" type="curve" smooth="yes"/>
      <point x="210" y="191" type="line" smooth="yes"/>
      <point x="210" y="56"/>
      <point x="354" y="11"/>
      <point x="562" y="11" type="curve" smooth="yes"/>
      <point x="747" y="11"/>
      <point x="894" y="69"/>
      <point x="894" y="169" type="curve" smooth="yes"/>
      <point x="894" y="238" type="line" smooth="yes"/>
      <point x="894" y="331"/>
      <point x="909" y="418"/>
      <point x="1038" y="479" type="curve"/>
    </contour>
    <contour>
      <point x="527" y="319" type="line" smooth="yes"/>
      <point x="497" y="319"/>
      <point x="483" y="311"/>
      <point x="483" y="281" type="curve" smooth="yes"/>
      <point x="483" y="238" type="line" smooth="yes"/>
      <point x="483" y="202"/>
      <point x="518" y="198"/>
      <point x="549" y="198" type="curve" smooth="yes"/>
      <point x="554" y="198"/>
      <point x="618" y="201"/>
      <point x="624" y="202" type="curve"/>
      <point x="624" y="319" type="line"/>
    </contour>
  </outline>
</glyph>
<glyph name="V" format="2">
  <advance width="749" height="962"/>
  <unicode hex="0056"/>
  <outline>
    <contour>
      <point x="14" y="700" type="line"/>
      <point x="206" y="700" type="line"/>
      <point x="375" y="192" type="line"/>
      <point x="541" y="700" type="line"/>
      <point x="736" y="700" type="line"/>
      <point x="487" y="0" type="line"/>
      <point x="256" y="0" type="line"/>
    </contour>
  </outline>
</glyph>
<glyph name="bracketleft" format="2">
  <advance width="350" height="962"/>
  <unicode hex="005B"/>
  <outline>
    <contour>
      <point x="227" y="650" type="line"/>
      <point x="227" y="64" type="line"/>
      <point x="303" y="54" type="line"/>
      <point x="303" y="-115" type="line"/>
      <point x="47" y="-115" type="line"/>
      <point x="47" y="819" type="line"/>
      <point x="303" y="819" type="line"/>
      <point x="303" y="660" type="line"/>
    </contour>
  </outline>
</glyph>
<glyph name="bracketright" format="2">
  <advance width="353" height="962"/>
  <unicode hex="005D"/>
  <outline>
    <contour>
      <point x="47" y="-115" type="line"/>
      <point x="47" y="56" type="line"/>
      <point x="122" y="66" type="line"/>
      <point x="122" y="650" type="line"/>
      <point x="47" y="660" type="line"/>
      <point x="47" y="819" type="line"/>
      <point x="305" y="819" type="line"/>
      <point x="305" y="-115" type="line"/>
    </contour>
  </outline>
</glyph>
<glyph name="i" format="2">
  <advance width="270" height="962"/>
  <unicode hex="0069"/>
  <outline>
    <contour>
      <point x="44" y="0" type="line"/>
      <point x="44" y="501" type="line"/>
      <point x="224" y="501" type="line"/>
      <point x="224" y="0" type="line"/>
    </contour>
    <contour>
      <point x="134" y="740" type="curve" smooth="yes"/>
      <point x="184" y="740"/>
      <point x="224" y="704"/>
      <point x="224" y="652" type="curve" smooth="yes"/>
      <point x="224" y="602"/>
      <point x="184" y="562"/>
      <point x="134" y="562" type="curve" smooth="yes"/>
      <point x="82" y="562"/>
      <point x="44" y="602"/>
      <point x="44" y="652" type="curve" smooth="yes"/>
      <point x="44" y="704"/>
      <point x="82" y="740"/>
    </contour>
  </outline>
</glyph>
<glyph name="copyright" format="2">
  <advance width="1270" height="962"/>
  <unicode hex="00A9"/>
  <outline>
    <contour>
      <point x="1239" y="177" type="line" smooth="yes"/>
      <point x="1239" y="-58"/>
      <point x="988" y="-146"/>
      <point x="634" y="-146" type="curve" smooth="yes"/>
      <point x="280" y="-146"/>
      <point x="31" y="-48"/>
      <point x="31" y="177" type="curve" smooth="yes"/>
      <point x="31" y="347" type="line" smooth="yes"/>
      <point x="31" y="553"/>
      <point x="280" y="667"/>
      <point x="634" y="667" type="curve" smooth="yes"/>
      <point x="988" y="667"/>
      <point x="1239" y="563"/>
      <point x="1239" y="347" type="curve" smooth="yes"/>
    </contour>
    <contour>
      <point x="1057" y="290" type="line" smooth="yes"/>
      <point x="1057" y="471"/>
      <point x="936" y="505"/>
      <point x="633" y="505" type="curve" smooth="yes"/>
      <point x="332" y="505"/>
      <point x="210" y="449"/>
      <point x="210" y="290" type="curve" smooth="yes"/>
      <point x="210" y="223" type="line" smooth="yes"/>
      <point x="210" y="72"/>
      <point x="332" y="11"/>
      <point x="633" y="11" type="curve" smooth="yes"/>
      <point x="936" y="11"/>
      <point x="1057" y="46"/>
      <point x="1057" y="223" type="curve" smooth="yes"/>
    </contour>
    <contour>
      <point x="835" y="300" type="line"/>
      <point x="774.091" y="306.862"/>
      <point x="714.368" y="312"/>
      <point x="653" y="312" type="curve" smooth="yes"/>
      <point x="615.945" y="312"/>
      <point x="581.887" y="309.549"/>
      <point x="557.79" y="301.234" type="curve" smooth="yes"/>
      <point x="535.715" y="293.618"/>
      <point x="522" y="281.08"/>
      <point x="522" y="261" type="curve" smooth="yes"/>
      <point x="522" y="242.679"/>
      <point x="532.171" y="228.365"/>
      <point x="555.594" y="219.256" type="curve" smooth="yes"/>
      <point x="574.361" y="211.957"/>
      <point x="601.635" y="208"/>
      <point x="639" y="208" type="curve" smooth="yes"/>
      <point x="707.631" y="208"/>
      <point x="774.917" y="213.99"/>
      <point x="843" y="222" type="curve"/>
      <point x="895" y="85" type="line"/>
      <point x="831" y="63"/>
      <point x="744" y="41"/>
      <point x="643" y="41" type="curve" smooth="yes"/>
      <point x="557.613" y="41"/>
      <point x="489.483" y="55.1888"/>
      <point x="439.869" y="82.6427" type="curve" smooth="yes"/>
      <point x="376.178" y="117.886"/>
      <point x="343" y="174.99"/>
      <point x="343" y="252" type="curve" smooth="yes"/>
      <point x="343" y="322.272"/>
      <point x="367.799" y="376.763"/>
      <point x="416.327" y="414.617" type="curve" smooth="yes"/>
      <point x="470.004" y="456.486"/>
      <point x="552.711" y="478"/>
      <point x="663" y="478" type="curve" smooth="yes"/>
      <point x="744" y="478"/>
      <point x="825" y="461"/>
      <point x="889" y="440" type="curve"/>
    </contour>
  </outline>
</glyph>
<glyph name="guillemotright" format="2">
  <advance width="845" height="962"/>
  <unicode hex="00BB"/>
  <outline>
    <contour>
      <point x="256" y="268" type="line"/>
      <point x="76" y="384" type="line"/>
      <point x="158" y="476" type="line"/>
      <point x="468" y="268" type="line"/>
      <point x="158" y="60" type="line"/>
      <point x="78" y="149" type="line"/>
    </contour>
    <contour>
      <point x="588" y="268" type="line"/>
      <point x="408" y="384" type="line"/>
      <point x="488" y="476" type="line"/>
      <point x="800" y="268" type="line"/>
      <point x="488" y="60" type="line"/>
      <point x="409" y="149" type="line"/>
    </contour>
  </outline>
</glyph>
<glyph name="Hbar" format="2">
  <advance width="730" height="962"/>
  <unicode hex="0126"/>
  <outline>
    <contour>
      <point x="0" y="510" type="line"/>
      <point x="0" y="617" type="line"/>
      <point x="730" y="617" type="line"/>
      <point x="730" y="510" type="line"/>
    </contour>
    <contour>
      <point x="508" y="438" type="line"/>
      <point x="508" y="700" type="line"/>
      <point x="689" y="700" type="line"/>
      <point x="689" y="0" type="line"/>
      <point x="508" y="0" type="line"/>
      <point x="508" y="280" type="line"/>
      <point x="222" y="280" type="line"/>
      <point x="222" y="0" type="line"/>
      <point x="41" y="0" type="line"/>
      <point x="41" y="700" type="line"/>
      <point x="222" y="700" type="line"/>
      <point x="222" y="438" type="line"/>
    </contour>
  </outline>
</glyph>
<glyph name="ij" format="2">
  <advance width="656" height="962"/>
  <unicode hex="0133"/>
  <outline>
    <contour>
      <point x="129" y="741" type="curve" smooth="yes"/>
      <point x="179" y="741"/>
      <point x="221" y="704"/>
      <point x="221" y="653" type="curve" smooth="yes"/>
      <point x="221" y="601"/>
      <point x="179" y="561"/>
      <point x="129" y="561" type="curve" smooth="yes"/>
      <point x="77" y="561"/>
      <point x="37" y="601"/>
      <point x="37" y="653" type="curve" smooth="yes"/>
      <point x="37" y="704"/>
      <point x="77" y="741"/>
    </contour>
    <contour>
      <point x="621" y="653" type="curve" smooth="yes"/>
      <point x="621" y="601"/>
      <point x="579" y="561"/>
      <point x="529" y="561" type="curve" smooth="yes"/>
      <point x="477" y="561"/>
      <point x="437" y="601"/>
      <point x="437" y="653" type="curve" smooth="yes"/>
      <point x="437" y="704"/>
      <point x="477" y="741"/>
      <point x="529" y="741" type="curve" smooth="yes"/>
      <point x="579" y="741"/>
      <point x="621" y="704"/>
    </contour>
    <contour>
      <point x="439" y="503" type="line"/>
      <point x="618" y="503" type="line"/>
      <point x="618" y="-59" type="line" smooth="yes"/>
      <point x="618" y="-155"/>
      <point x="513" y="-214"/>
      <point x="363" y="-214" type="curve"/>
      <point x="296" y="-62" type="line"/>
      <point x="338" y="-62"/>
      <point x="439" y="-51"/>
      <point x="439" y="-9" type="curve" smooth="yes"/>
      <point x="439" y="14" type="line"/>
      <point x="377" y="-6"/>
      <point x="318" y="-10"/>
      <point x="246" y="-10" type="curve" smooth="yes"/>
      <point x="143" y="-10"/>
      <point x="37" y="30"/>
      <point x="37" y="159" type="curve" smooth="yes"/>
      <point x="37" y="503" type="line"/>
      <point x="217" y="503" type="line"/>
      <point x="217" y="200" type="line" smooth="yes"/>
      <point x="217" y="168"/>
      <point x="258" y="160"/>
      <point x="323" y="160" type="curve" smooth="yes"/>
      <point x="361" y="160"/>
      <point x="439" y="171"/>
      <point x="439" y="204" type="curve" smooth="yes"/>
    </contour>
  </outline>
</glyph>
<glyph name="eng" format="2">
  <advance width="659" height="962"/>
  <unicode hex="014B"/>
  <outline>
    <contour>
      <point x="619" y="-24" type="line" smooth="yes"/>
      <point x="619" y="-148"/>
      <point x="562" y="-211"/>
      <point x="424" y="-211" type="curve"/>
      <point x="347" y="-89" type="line"/>
      <point x="379" y="-87"/>
      <point x="440" y="-76"/>
      <point x="440" y="-29" type="curve" smooth="yes"/>
      <point x="440" y="296" type="line" smooth="yes"/>
      <point x="440" y="333"/>
      <point x="407" y="339"/>
      <point x="368" y="339" type="curve" smooth="yes"/>
      <point x="316" y="339"/>
      <point x="253" y="331"/>
      <point x="218" y="325" type="curve"/>
      <point x="218" y="0" type="line"/>
      <point x="39" y="0" type="line"/>
      <point x="39" y="501" type="line"/>
      <point x="218" y="501" type="line"/>
      <point x="218" y="478" type="line"/>
      <point x="279" y="498"/>
      <point x="352" y="511"/>
      <point x="413" y="511" type="curve" smooth="yes"/>
      <point x="518" y="511"/>
      <point x="619" y="465"/>
      <point x="619" y="336" type="curve" smooth="yes"/>
    </contour>
  </outline>
</glyph>
<glyph name="uni040B" format="2">
  <advance width="851" height="962"/>
  <unicode hex="040B"/>
  <outline>
    <component base="T" xOffset="10.5"/>
    <contour>
      <point x="588" y="512" type="curve" smooth="yes"/>
      <point x="719" y="512"/>
      <point x="824" y="475"/>
      <point x="824" y="346" type="curve" smooth="yes"/>
      <point x="824" y="0" type="line"/>
      <point x="644" y="0" type="line"/>
      <point x="644" y="291" type="line" smooth="yes"/>
      <point x="644" y="335"/>
      <point x="614" y="348"/>
      <point x="532" y="348" type="curve" smooth="yes"/>
      <point x="509" y="348"/>
      <point x="443" y="344"/>
      <point x="412" y="339" type="curve"/>
      <point x="412" y="478" type="line"/>
      <point x="450" y="494"/>
      <point x="520" y="512"/>
    </contour>
  </outline>
</glyph>
<glyph name="uni040F" format="2">
  <advance width="733" height="962"/>
  <unicode hex="040F"/>
  <outline>
    <contour>
      <point x="689" y="700" type="line"/>
      <point x="689" y="0" type="line"/>
      <point x="456" y="0" type="line"/>
      <point x="447" y="-145" type="line"/>
      <point x="284" y="-145" type="line"/>
      <point x="275" y="0" type="line"/>
      <point x="43" y="0" type="line"/>
      <point x="43" y="700" type="line"/>
      <point x="224" y="700" type="line"/>
      <point x="224" y="161" type="line"/>
      <point x="510" y="161" type="line"/>
      <point x="510" y="700" type="line"/>
    </contour>
  </outline>
</glyph>
<glyph name="uni0418" format="2">
  <advance width="824" height="962"/>
  <unicode hex="0418"/>
  <outline>
    <contour>
      <point x="41" y="700" type="line"/>
      <point x="219" y="700" type="line"/>
      <point x="219" y="245" type="line"/>
      <point x="607" y="700" type="line"/>
      <point x="782" y="700" type="line"/>
      <point x="782" y="0" type="line"/>
      <point x="607" y="-1" type="line"/>
      <point x="607" y="443" type="line"/>
      <point x="231" y="0" type="line"/>
      <point x="41" y="0" type="line"/>
    </contour>
  </outline>
</glyph>
<glyph name="uni041B" format="2">
  <advance width="827" height="962"/>
  <unicode hex="041B"/>
  <outline>
    <contour>
      <point x="534" y="700" type="curve" smooth="yes"/>
      <point x="795" y="700" type="line"/>
      <point x="795" y="-1" type="line"/>
      <point x="615" y="-1" type="line"/>
      <point x="615" y="540" type="line"/>
      <point x="543" y="540" type="line" smooth="yes"/>
      <point x="509" y="540"/>
      <point x="489" y="533"/>
      <point x="467" y="485" type="curve" smooth="yes"/>
      <point x="329" y="182" type="line" smooth="yes"/>
      <point x="281" y="76"/>
      <point x="245" y="23"/>
      <point x="128" y="-23" type="curve"/>
      <point x="21" y="83" type="line"/>
      <point x="80" y="104"/>
      <point x="107" y="129"/>
      <point x="138" y="198" type="curve" smooth="yes"/>
      <point x="305" y="566" type="line" smooth="yes"/>
      <point x="334" y="631"/>
      <point x="367" y="700"/>
    </contour>
  </outline>
</glyph>
<glyph name="uni0438" format="2">
  <advance width="684" height="962"/>
  <unicode hex="0438"/>
  <outline>
    <contour>
      <point x="220" y="500" type="line"/>
      <point x="220" y="248" type="line"/>
      <point x="465" y="500" type="line"/>
      <point x="646" y="500" type="line"/>
      <point x="646" y="-1" type="line"/>
      <point x="465" y="-1" type="line"/>
      <point x="465" y="249" type="line"/>
      <point x="220" y="-1" type="line"/>
      <point x="39" y="-1" type="line"/>
      <point x="39" y="500" type="line"/>
    </contour>
  </outline>
</glyph>
<glyph name="uni043C" format="2">
  <advance width="922" height="962"/>
  <unicode hex="043C"/>
  <outline>
    <contour>
      <point x="695" y="500" type="line"/>
      <point x="886" y="500" type="line"/>
      <point x="886" y="-1" type="line"/>
      <point x="706" y="-1" type="line"/>
      <point x="706" y="222" type="line"/>
      <point x="551" y="0" type="line"/>
      <point x="372" y="1" type="line"/>
      <point x="217" y="222" type="line"/>
      <point x="217" y="-1" type="line"/>
      <point x="36" y="-1" type="line"/>
      <point x="36" y="500" type="line"/>
      <point x="230" y="500" type="line"/>
      <point x="465" y="169" type="line"/>
    </contour>
  </outline>
</glyph>
<glyph name="uni043D" format="2">
  <advance width="656" height="962"/>
  <unicode hex="043D"/>
  <outline>
    <contour>
      <point x="438" y="325" type="line"/>
      <point x="438" y="500" type="line"/>
      <point x="619" y="500" type="line"/>
      <point x="619" y="0" type="line"/>
      <point x="438" y="0" type="line"/>
      <point x="438" y="186" type="line"/>
      <point x="219" y="186" type="line"/>
      <point x="219" y="0" type="line"/>
      <point x="36" y="0" type="line"/>
      <point x="36" y="500" type="line"/>
      <point x="219" y="500" type="line"/>
      <point x="219" y="325" type="line"/>
    </contour>
  </outline>
</glyph>
<glyph name="uni0446" format="2">
  <advance width="726" height="962"/>
  <unicode hex="0446"/>
  <outline>
    <contour>
      <point x="613" y="500" type="line"/>
      <point x="613" y="160" type="line"/>
      <point x="711" y="160" type="line"/>
      <point x="711" y="-125" type="line"/>
      <point x="541" y="-125" type="line"/>
      <point x="529" y="0" type="line"/>
      <point x="37" y="0" type="line"/>
      <point x="37" y="500" type="line"/>
      <point x="217" y="500" type="line"/>
      <point x="217" y="160" type="line"/>
      <point x="434" y="160" type="line"/>
      <point x="434" y="500" type="line"/>
    </contour>
  </outline>
</glyph>
<glyph name="uni044C" format="2">
  <advance width="652" height="962"/>
  <unicode hex="044C"/>
  <outline>
    <contour>
      <point x="366" y="360" type="line" smooth="yes"/>
      <point x="504" y="360"/>
      <point x="628" y="315"/>
      <point x="628" y="183" type="curve" smooth="yes"/>
      <point x="628" y="54"/>
      <point x="546" y="-9"/>
      <point x="319" y="-9" type="curve" smooth="yes"/>
      <point x="226" y="-9"/>
      <point x="40" y="2"/>
      <point x="40" y="2" type="curve"/>
      <point x="40" y="500" type="line"/>
      <point x="220" y="500" type="line"/>
      <point x="220" y="360" type="line"/>
    </contour>
    <contour>
      <point x="392" y="150" type="curve" smooth="yes"/>
      <point x="424" y="150"/>
      <point x="449" y="156"/>
      <point x="449" y="176" type="curve" smooth="yes"/>
      <point x="449" y="194"/>
      <point x="430" y="201"/>
      <point x="400" y="201" type="curve" smooth="yes"/>
      <point x="220" y="201" type="line"/>
      <point x="220" y="151" type="line"/>
      <point x="258" y="151"/>
      <point x="372" y="150"/>
    </contour>
  </outline>
</glyph>
<glyph name="uni0452" format="2">
  <advance width="729" height="962"/>
  <unicode hex="0452"/>
  <outline>
    <contour>
      <point x="1" y="641" type="line"/>
      <point x="458" y="641" type="line"/>
      <point x="458" y="527" type="line"/>
      <point x="1" y="527" type="line"/>
    </contour>
    <contour>
      <point x="412" y="510" type="curve" smooth="yes"/>
      <point x="517" y="510"/>
      <point x="630" y="474"/>
      <point x="630" y="345" type="curve" smooth="yes"/>
      <point x="630" y="-24" type="line" smooth="yes"/>
      <point x="630" y="-134"/>
      <point x="555" y="-217"/>
      <point x="384" y="-217" type="curve"/>
      <point x="339" y="-90" type="line"/>
      <point x="393" y="-88"/>
      <point x="454" y="-75"/>
      <point x="454" y="-14" type="curve" smooth="yes"/>
      <point x="453" y="299" type="line" smooth="yes"/>
      <point x="453" y="325"/>
      <point x="440" y="341"/>
      <point x="382" y="341" type="curve" smooth="yes"/>
      <point x="346" y="341"/>
      <point x="281" y="334"/>
      <point x="234" y="327" type="curve"/>
      <point x="234" y="-1" type="line"/>
      <point x="49" y="-1" type="line"/>
      <point x="49" y="700" type="line"/>
      <point x="234" y="700" type="line"/>
      <point x="234" y="478" type="line"/>
      <point x="292" y="498"/>
      <point x="361" y="510"/>
    </contour>
  </outline>
</glyph>
<glyph name="uni0492" format="2">
  <advance width="557" height="962"/>
  <unicode hex="0492"/>
  <outline>
    <component base="Gamma" xOffset="10"/>
    <contour>
      <point x="0" y="303" type="line"/>
      <point x="0" y="414" type="line"/>
      <point x="460" y="414" type="line"/>
      <point x="460" y="303" type="line"/>
    </contour>
  </outline>
</glyph>
<glyph name="uni04B0" format="2">
  <advance width="736" height="962"/>
  <unicode hex="04B0"/>
  <outline>
    <component base="uni04AE"/>
    <contour>
      <point x="153" y="258" type="line"/>
      <point x="571.5" y="258" type="line"/>
      <point x="571.5" y="120" type="line"/>
      <point x="153" y="120" type="line"/>
    </contour>
  </outline>
</glyph>
<glyph name="descendercomb" format="2">
  <advance width="250" height="962"/>
  <outline>
    <contour>
      <point x="62" y="9" type="line"/>
      <point x="182" y="9" type="line"/>
      <point x="182" y="1" type="line"/>
      <point x="230" y="-58" type="line" smooth="yes"/>
      <point x="308" y="-154"/>
      <point x="221" y="-267"/>
      <point x="111" y="-224" type="curve" smooth="yes"/>
      <point x="-6" y="-178" type="line"/>
      <point x="36" y="-87" type="line"/>
      <point x="144" y="-133" type="line" smooth="yes"/>
      <point x="158" y="-139"/>
      <point x="166" y="-124"/>
      <point x="158" y="-115" type="curve" smooth="yes"/>
      <point x="62" y="0" type="line"/>
    </contour>
  </outline>
</glyph>
